{
  "accessors": [
    {
      "bufferView": 2,
      "componentType": 5126,
      "count": 1839,
      "max": [
        2.2004001140594482,
        1.5140999555587769,
        4.870699882507324
      ],
      "min": [
        -2.2002999782562256,
        -1.5582000017166138,
        -1.607300043106079
      ],
      "type": "VEC3"
    },
    {
      "bufferView": 2,
      "byteOffset": 22068,
      "componentType": 5126,
      "count": 1839,
      "max": [
        0.9993887543678284,
        0.9999875426292419,
        0.9999999403953552
      ],
      "min": [
        -0.9997588992118835,
        -1.0,
        -0.9999931454658508
      ],
      "type": "VEC3"
    },
    {
      "bufferView": 1,
      "componentType": 5126,
      "count": 1839,
      "max": [
        0.9921000003814697,
        0.9926000237464905
      ],
      "min": [
        0.007400000002235174,
        0.07240000367164612
      ],
      "type": "VEC2"
    },
    {
      "bufferView": 0,
      "componentType": 5125,
      "count": 5652,
      "type": "SCALAR"
    }
  ],
  "asset": {
    "extras": {
      "author": "ivan.vladimirov08 (https://sketchfab.com/ivan.vladimirov08)",
      "license": "CC-BY-4.0 (http://creativecommons.org/licenses/by/4.0/)",
      "source": "https://sketchfab.com/3d-models/dipper-pines-e55c6fcf2db4430697fbaa5099b78548",
      "title": "Dipper Pines"
    },
    "generator": "Sketchfab-12.67.0",
    "version": "2.0"
  },
  "bufferViews": [
    {
      "buffer": 0,
      "byteLength": 22608,
      "name": "floatBufferViews",
      "target": 34963
    },
    {
      "buffer": 0,
      "byteLength": 14712,
      "byteOffset": 22608,
      "byteStride": 8,
      "name": "floatBufferViews",
      "target": 34962
    },
    {
      "buffer": 0,
      "byteLength": 44136,
      "byteOffset": 37320,
      "byteStride": 12,
      "name": "floatBufferViews",
      "target": 34962
    }
  ],
  "buffers": [
    {
      "byteLength": 81456,
      "uri": "scene.bin"
    }
  ],
  "images": [
    {
      "uri": "textures/dipper_hd_baseColor.png"
    }
  ],
  "materials": [
    {
      "doubleSided": true,
      "name": "dipper_hd",
      "pbrMetallicRoughness": {
        "baseColorTexture": {
          "index": 0
        },
        "metallicFactor": 0.0
      }
    }
  ],
  "meshes": [
    {
      "name": "Object_0",
      "primitives": [
        {
          "attributes": {
            "NORMAL": 1,
            "POSITION": 0,
            "TEXCOORD_0": 2
          },
          "indices": 3,
          "material": 0,
          "mode": 4
        }
      ]
    }
  ],
  "nodes": [
    {
      "children": [
        1
      ],
      "matrix": [
        1.0,
        0.0,
        0.0,
        0.0,
        0.0,
        2.220446049250313e-16,
        -1.0,
        0.0,
        0.0,
        1.0,
        2.220446049250313e-16,
        0.0,
        0.0,
        0.0,
        0.0,
        1.0
      ],
      "name": "Sketchfab_model"
    },
    {
      "children": [
        2
      ],
      "name": "dipper.obj.cleaner.materialmerger.gles"
    },
    {
      "mesh": 0,
      "name": "Object_2"
    }
  ],
  "samplers": [
    {
      "magFilter": 9729,
      "minFilter": 9987,
      "wrapS": 10497,
      "wrapT": 10497
    }
  ],
  "scene": 0,
  "scenes": [
    {
      "name": "Sketchfab_Scene",
      "nodes": [
        0
      ]
    }
  ],
  "textures": [
    {
      "sampler": 0,
      "source": 0
    }
  ]
}
