{
  "accessors": [
    {
      "bufferView": 2,
      "componentType": 5126,
      "count": 462,
      "max": [
        0.2041739970445633,
        -1.4245619773864746,
        0.6822580099105835
      ],
      "min": [
        -0.2041739970445633,
        -1.9986909627914429,
        0.029923999682068825
      ],
      "type": "VEC3"
    },
    {
      "bufferView": 2,
      "byteOffset": 5544,
      "componentType": 5126,
      "count": 462,
      "max": [
        0.9999979734420776,
        0.9982264637947083,
        1.0
      ],
      "min": [
        -0.9999979734420776,
        -0.9990922212600708,
        -0.9995883703231812
      ],
      "type": "VEC3"
    },
    {
      "bufferView": 1,
      "componentType": 5126,
      "count": 462,
      "max": [
        0.7843610048294067,
        0.386694997549057
      ],
      "min": [
        0.4477449953556061,
        0.008345999754965305
      ],
      "type": "VEC2"
    },
    {
      "bufferView": 0,
      "componentType": 5125,
      "count": 2352,
      "type": "SCALAR"
    },
    {
      "bufferView": 2,
      "byteOffset": 11088,
      "componentType": 5126,
      "count": 3021,
      "max": [
        0.885312020778656,
        -0.7245500087738037,
        3.0858020782470703
      ],
      "min": [
        -0.885312020778656,
        -2.2308781147003174,
        0.47484099864959717
      ],
      "type": "VEC3"
    },
    {
      "bufferView": 2,
      "byteOffset": 47340,
      "componentType": 5126,
      "count": 3021,
      "max": [
        0.9997342228889465,
        0.9999992251396179,
        0.9999997615814209
      ],
      "min": [
        -0.9997342228889465,
        -0.9999998807907104,
        -0.9999930262565613
      ],
      "type": "VEC3"
    },
    {
      "bufferView": 1,
      "byteOffset": 3696,
      "componentType": 5126,
      "count": 3021,
      "max": [
        0.991457998752594,
        0.9897350072860718
      ],
      "min": [
        0.006659000180661678,
        0.011648000217974186
      ],
      "type": "VEC2"
    },
    {
      "bufferView": 0,
      "byteOffset": 9408,
      "componentType": 5125,
      "count": 15498,
      "type": "SCALAR"
    },
    {
      "bufferView": 2,
      "byteOffset": 83592,
      "componentType": 5126,
      "count": 56,
      "max": [
        0.2933720052242279,
        -1.8253580331802368,
        2.4633710384368896
      ],
      "min": [
        -0.013748999685049057,
        -2.1505019664764404,
        2.151510000228882
      ],
      "type": "VEC3"
    },
    {
      "bufferView": 2,
      "byteOffset": 84264,
      "componentType": 5126,
      "count": 56,
      "max": [
        0.9378772377967834,
        1.0,
        0.9738143682479858
      ],
      "min": [
        -0.9748028516769409,
        -1.0,
        -0.9601256251335144
      ],
      "type": "VEC3"
    },
    {
      "bufferView": 1,
      "byteOffset": 27864,
      "componentType": 5126,
      "count": 56,
      "max": [
        0.8698729872703552,
        0.3858630061149597
      ],
      "min": [
        0.7953969836235046,
        0.31138700246810913
      ],
      "type": "VEC2"
    },
    {
      "bufferView": 0,
      "byteOffset": 71400,
      "componentType": 5125,
      "count": 324,
      "type": "SCALAR"
    },
    {
      "bufferView": 2,
      "byteOffset": 84936,
      "componentType": 5126,
      "count": 56,
      "max": [
        0.013748999685049057,
        -1.8253580331802368,
        2.4633710384368896
      ],
      "min": [
        -0.2933720052242279,
        -2.1505019664764404,
        2.151510000228882
      ],
      "type": "VEC3"
    },
    {
      "bufferView": 2,
      "byteOffset": 85608,
      "componentType": 5126,
      "count": 56,
      "max": [
        0.9378772377967834,
        1.0,
        0.9601256251335144
      ],
      "min": [
        -0.9748028516769409,
        -1.0,
        -0.9738143682479858
      ],
      "type": "VEC3"
    },
    {
      "bufferView": 1,
      "byteOffset": 28312,
      "componentType": 5126,
      "count": 56,
      "max": [
        0.8698729872703552,
        0.3858630061149597
      ],
      "min": [
        0.7953969836235046,
        0.31138700246810913
      ],
      "type": "VEC2"
    },
    {
      "bufferView": 0,
      "byteOffset": 72696,
      "componentType": 5125,
      "count": 324,
      "type": "SCALAR"
    }
  ],
  "asset": {
    "extras": {
      "author": "bronywilson (https://sketchfab.com/bronywilson)",
      "license": "CC-BY-4.0 (http://creativecommons.org/licenses/by/4.0/)",
      "source": "https://sketchfab.com/3d-models/mabel-gravity-falls-b66f2dbaca7a4210b30f77c0371fc53a",
      "title": "Mabel-gravity-falls"
    },
    "generator": "Sketchfab-12.66.0",
    "version": "2.0"
  },
  "bufferViews": [
    {
      "buffer": 0,
      "byteLength": 73992,
      "name": "floatBufferViews",
      "target": 34963
    },
    {
      "buffer": 0,
      "byteLength": 28760,
      "byteOffset": 73992,
      "byteStride": 8,
      "name": "floatBufferViews",
      "target": 34962
    },
    {
      "buffer": 0,
      "byteLength": 86280,
      "byteOffset": 102752,
      "byteStride": 12,
      "name": "floatBufferViews",
      "target": 34962
    }
  ],
  "buffers": [
    {
      "byteLength": 189032,
      "uri": "scene.bin"
    }
  ],
  "images": [
    {
      "uri": "textures/Material02_baseColor.png"
    }
  ],
  "materials": [
    {
      "doubleSided": true,
      "name": "Material01",
      "pbrMetallicRoughness": {
        "baseColorFactor": [
          0.8,
          0.8,
          0.8,
          1.0
        ],
        "metallicFactor": 0.0,
        "roughnessFactor": 0.6
      }
    },
    {
      "doubleSided": true,
      "name": "Material02",
      "pbrMetallicRoughness": {
        "baseColorTexture": {
          "index": 0
        },
        "metallicFactor": 0.0,
        "roughnessFactor": 0.6
      }
    },
    {
      "doubleSided": true,
      "name": "Material03",
      "pbrMetallicRoughness": {
        "baseColorTexture": {
          "index": 0
        },
        "metallicFactor": 0.0,
        "roughnessFactor": 0.6
      }
    },
    {
      "doubleSided": true,
      "name": "Material04",
      "pbrMetallicRoughness": {
        "baseColorTexture": {
          "index": 0
        },
        "metallicFactor": 0.0,
        "roughnessFactor": 0.6
      }
    }
  ],
  "meshes": [
    {
      "name": "Object_0",
      "primitives": [
        {
          "attributes": {
            "NORMAL": 1,
            "POSITION": 0,
            "TEXCOORD_0": 2
          },
          "indices": 3,
          "material": 0,
          "mode": 4
        }
      ]
    },
    {
      "name": "Object_1",
      "primitives": [
        {
          "attributes": {
            "NORMAL": 5,
            "POSITION": 4,
            "TEXCOORD_0": 6
          },
          "indices": 7,
          "material": 1,
          "mode": 4
        }
      ]
    },
    {
      "name": "Object_2",
      "primitives": [
        {
          "attributes": {
            "NORMAL": 9,
            "POSITION": 8,
            "TEXCOORD_0": 10
          },
          "indices": 11,
          "material": 2,
          "mode": 4
        }
      ]
    },
    {
      "name": "Object_3",
      "primitives": [
        {
          "attributes": {
            "NORMAL": 13,
            "POSITION": 12,
            "TEXCOORD_0": 14
          },
          "indices": 15,
          "material": 3,
          "mode": 4
        }
      ]
    }
  ],
  "nodes": [
    {
      "children": [
        1
      ],
      "matrix": [
        1.0,
        0.0,
        0.0,
        0.0,
        0.0,
        2.220446049250313e-16,
        -1.0,
        0.0,
        0.0,
        1.0,
        2.220446049250313e-16,
        0.0,
        0.0,
        0.0,
        0.0,
        1.0
      ],
      "name": "Sketchfab_model"
    },
    {
      "children": [
        2,
        3,
        4,
        5
      ],
      "name": "mabel9.obj.cleaner"
    },
    {
      "mesh": 0,
      "name": "Object_2"
    },
    {
      "mesh": 1,
      "name": "Object_3"
    },
    {
      "mesh": 2,
      "name": "Object_4"
    },
    {
      "mesh": 3,
      "name": "Object_5"
    }
  ],
  "samplers": [
    {
      "magFilter": 9729,
      "minFilter": 9987,
      "wrapS": 10497,
      "wrapT": 10497
    }
  ],
  "scene": 0,
  "scenes": [
    {
      "name": "Sketchfab_Scene",
      "nodes": [
        0
      ]
    }
  ],
  "textures": [
    {
      "sampler": 0,
      "source": 0
    }
  ]
}
