{
  "accessors": [
    {
      "bufferView": 3,
      "componentType": 5126,
      "count": 11504,
      "max": [
        0.634909987449646,
        0.26043999195098877,
        1.5815600156784058
      ],
      "min": [
        -0.634909987449646,
        -0.2726300060749054,
        -0.010300000198185444
      ],
      "type": "VEC3"
    },
    {
      "bufferView": 3,
      "byteOffset": 138048,
      "componentType": 5126,
      "count": 11504,
      "max": [
        0.999835729598999,
        0.9999995827674866,
        1.0
      ],
      "min": [
        -0.9998868107795715,
        -0.9999999403953552,
        -0.9998345375061035
      ],
      "type": "VEC3"
    },
    {
      "bufferView": 3,
      "byteOffset": 276096,
      "componentType": 5126,
      "count": 11504,
      "max": [
        1.0,
        0.8980392217636108,
        0.8549019694328308
      ],
      "min": [
        0.9960784316062927,
        0.8941176533699036,
        0.8509804010391235
      ],
      "type": "VEC3"
    },
    {
      "bufferView": 2,
      "componentType": 5126,
      "count": 11504,
      "max": [
        0.9869599938392639,
        0.9922800064086914
      ],
      "min": [
        0.0004199999966658652,
        0.0004199999966658652
      ],
      "type": "VEC2"
    },
    {
      "bufferView": 1,
      "componentType": 5125,
      "count": 58530,
      "type": "SCALAR"
    },
    {
      "bufferView": 5,
      "componentType": 5126,
      "count": 40,
      "max": [
        1.0,
        0.9818800091743469,
        1.0,
        0.0,
        0.9999399781227112,
        1.0,
        0.9995499849319458,
        0.0,
        0.9832500219345093,
        1.0,
        1.0,
        0.0,
        0.955299973487854,
        1.3058099746704102,
        1.2357699871063232,
        1.0
      ],
      "min": [
        -1.0,
        -0.9818800091743469,
        -1.0,
        0.0,
        -1.0,
        -0.9844800233840942,
        -0.9993299841880798,
        0.0,
        -0.9832500219345093,
        -0.9995499849319458,
        -0.9818800091743469,
        0.0,
        -0.955299973487854,
        -1.3583500385284424,
        -1.2597099542617798,
        1.0
      ],
      "type": "MAT4"
    },
    {
      "bufferView": 0,
      "componentType": 5123,
      "count": 11504,
      "type": "VEC4"
    },
    {
      "bufferView": 4,
      "componentType": 5126,
      "count": 11504,
      "max": [
        1.0,
        0.5,
        0.3333333432674408,
        0.2256394624710083
      ],
      "min": [
        0.0,
        0.0,
        0.0,
        0.0
      ],
      "type": "VEC4"
    }
  ],
  "asset": {
    "extras": {
      "author": "Miaru3d (https://sketchfab.com/miaru3d)",
      "license": "CC-BY-4.0 (http://creativecommons.org/licenses/by/4.0/)",
      "source": "https://sketchfab.com/3d-models/wendy-from-gravity-falls-8461b103676b4247862037c51dc67d6f",
      "title": "Wendy from Gravity Falls"
    },
    "generator": "Sketchfab-12.67.0",
    "version": "2.0"
  },
  "bufferViews": [
    {
      "buffer": 0,
      "byteLength": 92032,
      "byteStride": 8,
      "name": "shortBufferViews",
      "target": 34962
    },
    {
      "buffer": 0,
      "byteLength": 234120,
      "byteOffset": 92032,
      "name": "floatBufferViews",
      "target": 34963
    },
    {
      "buffer": 0,
      "byteLength": 92032,
      "byteOffset": 326152,
      "byteStride": 8,
      "name": "floatBufferViews",
      "target": 34962
    },
    {
      "buffer": 0,
      "byteLength": 414144,
      "byteOffset": 418184,
      "byteStride": 12,
      "name": "floatBufferViews",
      "target": 34962
    },
    {
      "buffer": 0,
      "byteLength": 184064,
      "byteOffset": 832328,
      "byteStride": 16,
      "name": "floatBufferViews",
      "target": 34962
    },
    {
      "buffer": 0,
      "byteLength": 2560,
      "byteOffset": 1016392,
      "name": "floatBufferViews"
    }
  ],
  "buffers": [
    {
      "byteLength": 1018952,
      "uri": "scene.bin"
    }
  ],
  "images": [
    {
      "uri": "textures/Wendy_Cycles_baseColor.png"
    }
  ],
  "materials": [
    {
      "doubleSided": true,
      "name": "Wendy_Cycles",
      "pbrMetallicRoughness": {
        "baseColorTexture": {
          "index": 0
        },
        "metallicFactor": 0.0,
        "roughnessFactor": 0.6
      }
    }
  ],
  "meshes": [
    {
      "name": "Wendy",
      "primitives": [
        {
          "attributes": {
            "COLOR_0": 2,
            "JOINTS_0": 6,
            "NORMAL": 1,
            "POSITION": 0,
            "TEXCOORD_0": 3,
            "WEIGHTS_0": 7
          },
          "indices": 4,
          "material": 0,
          "mode": 4
        }
      ]
    }
  ],
  "nodes": [
    {
      "children": [
        1
      ],
      "matrix": [
        1.0,
        0.0,
        0.0,
        0.0,
        0.0,
        2.220446049250313e-16,
        -1.0,
        0.0,
        0.0,
        1.0,
        2.220446049250313e-16,
        0.0,
        0.0,
        0.0,
        0.0,
        1.0
      ],
      "name": "Sketchfab_model"
    },
    {
      "children": [
        2
      ],
      "name": "Root"
    },
    {
      "children": [
        3,
        44,
        43
      ],
      "name": "WendyArmature"
    },
    {
      "children": [
        4
      ],
      "name": "WendyArmature_rootJoint"
    },
    {
      "children": [
        5,
        8,
        11
      ],
      "name": "hips_WendyArmature",
      "rotation": [
        0.5002974271774292,
        -0.49970242381095886,
        -0.5002974271774292,
        0.49970242381095886
      ],
      "scale": [
        1.0000007152557373,
        1.0000007152557373,
        1.0
      ],
      "translation": [
        0.0,
        0.004650000017136335,
        0.6754800081253052
      ]
    },
    {
      "children": [
        6
      ],
      "name": "thigh.L_WendyArmature",
      "rotation": [
        0.9939795732498169,
        0.03148657828569412,
        -0.10484787821769714,
        -0.004487267229706049
      ],
      "scale": [
        1.0000202655792236,
        1.0000035762786865,
        0.9999950528144836
      ],
      "translation": [
        0.0030700000934302807,
        -0.003280000062659383,
        -0.07075999677181244
      ]
    },
    {
      "children": [
        7
      ],
      "name": "shin.L_WendyArmature",
      "rotation": [
        -0.0021915454417467117,
        -0.07502839714288712,
        0.07130089402198792,
        0.9946266412734985
      ],
      "scale": [
        0.9999923706054688,
        1.0000020265579224,
        0.9999970197677612
      ],
      "translation": [
        0.0,
        0.2511900067329407,
        0.0
      ]
    },
    {
      "name": "foot.L_WendyArmature",
      "rotation": [
        -0.11993377655744553,
        0.10905259847640991,
        -0.6609247922897339,
        0.7327359318733215
      ],
      "scale": [
        0.999994695186615,
        1.0000009536743164,
        1.000004529953003
      ],
      "translation": [
        0.0,
        0.383870005607605,
        0.0
      ]
    },
    {
      "children": [
        9
      ],
      "name": "thigh.R_WendyArmature",
      "rotation": [
        -0.10484787821769714,
        0.004487267229706049,
        0.9939795732498169,
        -0.03148657828569412
      ],
      "scale": [
        1.0000202655792236,
        1.0000035762786865,
        0.9999950528144836
      ],
      "translation": [
        0.0030700000934302807,
        -0.003280000062659383,
        0.07075999677181244
      ]
    },
    {
      "children": [
        10
      ],
      "name": "shin.R_WendyArmature",
      "rotation": [
        -0.0021915454417467117,
        0.07502839714288712,
        -0.07130089402198792,
        0.9946266412734985
      ],
      "scale": [
        0.9999923706054688,
        1.0000020265579224,
        0.9999970197677612
      ],
      "translation": [
        0.0,
        0.2511900067329407,
        0.0
      ]
    },
    {
      "name": "foot.R_WendyArmature",
      "rotation": [
        -0.11993377655744553,
        -0.10905259847640991,
        0.6609247922897339,
        0.7327359318733215
      ],
      "scale": [
        0.999994695186615,
        1.0000009536743164,
        1.000004529953003
      ],
      "translation": [
        0.0,
        0.383870005607605,
        0.0
      ]
    },
    {
      "children": [
        12
      ],
      "name": "spine_WendyArmature",
      "rotation": [
        0.0,
        0.0,
        -0.1038612499833107,
        0.9945917725563049
      ],
      "scale": [
        1.0000044107437134,
        1.0000044107437134,
        1.0
      ],
      "translation": [
        0.0,
        0.10722000151872635,
        0.0
      ]
    },
    {
      "children": [
        13,
        19,
        25
      ],
      "name": "chest_WendyArmature",
      "rotation": [
        0.0,
        0.0,
        0.30708643794059753,
        0.9516817331314087
      ],
      "scale": [
        1.0000051259994507,
        1.0000051259994507,
        1.0
      ],
      "translation": [
        0.0,
        0.12540000677108765,
        0.0
      ]
    },
    {
      "children": [
        14
      ],
      "name": "clavicle.R_WendyArmature",
      "rotation": [
        -0.47245144844055176,
        0.5559439063072205,
        0.6039464473724365,
        -0.3208811581134796
      ],
      "scale": [
        1.000000238418579,
        0.9999938011169434,
        1.0000063180923462
      ],
      "translation": [
        -0.0040799998678267,
        0.07688000053167343,
        0.0203000009059906
      ]
    },
    {
      "children": [
        15
      ],
      "name": "upper_arm.R_WendyArmature",
      "rotation": [
        0.0568368136882782,
        0.98676997423172,
        -0.02905433252453804,
        -0.1490315943956375
      ],
      "scale": [
        1.000003457069397,
        0.999999463558197,
        0.999997079372406
      ],
      "translation": [
        0.0,
        0.056609999388456345,
        0.0
      ]
    },
    {
      "children": [
        16
      ],
      "name": "forearm.R_WendyArmature",
      "rotation": [
        0.004900666419416666,
        0.7398383617401123,
        -0.027917414903640747,
        0.672187328338623
      ],
      "scale": [
        0.9999964237213135,
        0.9999957084655762,
        1.000004768371582
      ],
      "translation": [
        0.0,
        0.23849999904632568,
        0.0
      ]
    },
    {
      "children": [
        17,
        18
      ],
      "name": "hand.R_WendyArmature",
      "rotation": [
        -0.04099348187446594,
        -0.6639611124992371,
        0.010522809810936451,
        0.7465684413909912
      ],
      "scale": [
        0.9999995231628418,
        0.9999961853027344,
        1.0000070333480835
      ],
      "translation": [
        0.0,
        0.23517000675201416,
        0.0
      ]
    },
    {
      "name": "thumb.02.R_WendyArmature",
      "rotation": [
        -0.38881561160087585,
        0.7911514043807983,
        0.24172350764274597,
        -0.40555107593536377
      ],
      "scale": [
        0.9999973177909851,
        1.0000076293945313,
        1.0000046491622925
      ],
      "translation": [
        -0.012799999676644802,
        0.02256999909877777,
        0.020309999585151672
      ]
    },
    {
      "name": "Finger.R_WendyArmature",
      "rotation": [
        0.008447878994047642,
        0.48155197501182556,
        0.016516365110874176,
        0.8762212991714478
      ],
      "scale": [
        0.9999977350234985,
        1.000001072883606,
        0.9999947547912598
      ],
      "translation": [
        0.0,
        0.03353000059723854,
        0.0
      ]
    },
    {
      "children": [
        20
      ],
      "name": "clavicle.L_WendyArmature",
      "rotation": [
        -0.6039464473724365,
        -0.3208811581134796,
        0.47245144844055176,
        0.5559439063072205
      ],
      "scale": [
        1.000000238418579,
        0.9999938011169434,
        1.0000063180923462
      ],
      "translation": [
        -0.0040799998678267,
        0.07688000053167343,
        -0.0203000009059906
      ]
    },
    {
      "children": [
        21
      ],
      "name": "upper_arm.L_WendyArmature",
      "rotation": [
        -0.0568368136882782,
        0.98676997423172,
        -0.02905433252453804,
        0.1490315943956375
      ],
      "scale": [
        1.000003457069397,
        0.999999463558197,
        0.999997079372406
      ],
      "translation": [
        0.0,
        0.056609999388456345,
        0.0
      ]
    },
    {
      "children": [
        22
      ],
      "name": "forearm.L_WendyArmature",
      "rotation": [
        0.004900666419416666,
        -0.7398383617401123,
        0.027917414903640747,
        0.672187328338623
      ],
      "scale": [
        0.9999964237213135,
        0.9999957084655762,
        1.000004768371582
      ],
      "translation": [
        0.0,
        0.23849999904632568,
        0.0
      ]
    },
    {
      "children": [
        23,
        24
      ],
      "name": "hand.L_WendyArmature",
      "rotation": [
        -0.04099348187446594,
        0.6639611124992371,
        -0.010522809810936451,
        0.7465684413909912
      ],
      "scale": [
        0.9999995231628418,
        0.9999961853027344,
        1.0000070333480835
      ],
      "translation": [
        0.0,
        0.23517000675201416,
        0.0
      ]
    },
    {
      "name": "thumb.02.L_WendyArmature",
      "rotation": [
        0.3888142704963684,
        0.7911525964736938,
        0.24172388017177582,
        0.40554967522621155
      ],
      "scale": [
        1.0000003576278687,
        1.0000025033950806,
        1.000010371208191
      ],
      "translation": [
        0.012799999676644802,
        0.02256999909877777,
        0.020309999585151672
      ]
    },
    {
      "name": "Finger.L_WendyArmature",
      "rotation": [
        0.008447878994047642,
        -0.48155197501182556,
        -0.016516365110874176,
        0.8762212991714478
      ],
      "scale": [
        0.9999977350234985,
        1.000001072883606,
        0.9999947547912598
      ],
      "translation": [
        0.0,
        0.03353000059723854,
        0.0
      ]
    },
    {
      "children": [
        26
      ],
      "name": "neck_WendyArmature",
      "rotation": [
        0.19858472049236298,
        0.9800838232040405,
        0.0,
        0.0
      ],
      "scale": [
        1.0000019073486328,
        1.0000019073486328,
        1.0
      ],
      "translation": [
        0.0,
        0.1303499937057495,
        0.0
      ]
    },
    {
      "children": [
        27,
        28,
        29,
        31,
        33,
        37,
        38,
        39,
        41,
        42
      ],
      "name": "head_WendyArmature",
      "rotation": [
        0.0,
        0.0,
        0.04087410122156143,
        0.9991642832756042
      ],
      "scale": [
        1.0000014305114746,
        1.0000014305114746,
        1.0
      ],
      "translation": [
        0.0,
        0.05635000020265579,
        0.0
      ]
    },
    {
      "name": "Parpado.L_WendyArmature",
      "rotation": [
        -0.31368783116340637,
        0.6337192058563232,
        0.31368783116340637,
        0.6337192058563232
      ],
      "scale": [
        1.0,
        1.000000238418579,
        1.000000238418579
      ],
      "translation": [
        -0.10480999946594238,
        0.19470000267028809,
        0.06470999866724014
      ]
    },
    {
      "name": "Parpado.R_WendyArmature",
      "rotation": [
        -0.31368783116340637,
        0.6337192058563232,
        0.31368783116340637,
        0.6337192058563232
      ],
      "scale": [
        1.0,
        1.000000238418579,
        1.000000238418579
      ],
      "translation": [
        -0.10480999946594238,
        0.19470000267028809,
        -0.06470999866724014
      ]
    },
    {
      "children": [
        30
      ],
      "name": "gorraFrente_WendyArmature",
      "rotation": [
        -0.4185274839401245,
        0.5699427723884583,
        0.4185274839401245,
        0.5699427723884583
      ],
      "scale": [
        1.0,
        1.0000033378601074,
        1.0000033378601074
      ],
      "translation": [
        -0.13330000638961792,
        0.2530199885368347,
        0.0
      ]
    },
    {
      "name": "gorraFrente2_WendyArmature",
      "rotation": [
        0.5899993181228638,
        0.0,
        0.0,
        0.8074038624763489
      ],
      "scale": [
        1.0,
        0.9999944567680359,
        0.9999944567680359
      ],
      "translation": [
        0.0,
        0.09453999996185303,
        0.0
      ]
    },
    {
      "children": [
        32
      ],
      "name": "gorraAtras_WendyArmature",
      "rotation": [
        0.45554372668266296,
        0.5408141016960144,
        -0.45554372668266296,
        0.5408141016960144
      ],
      "scale": [
        1.0,
        1.000002145767212,
        1.000002145767212
      ],
      "translation": [
        0.11671999841928482,
        0.21554000675678253,
        0.0
      ]
    },
    {
      "name": "gorraAtras2_WendyArmature",
      "rotation": [
        -0.5334568619728088,
        0.0,
        0.0,
        0.8458272814750671
      ],
      "scale": [
        1.0,
        1.000005841255188,
        1.000005841255188
      ],
      "translation": [
        0.0,
        0.09453999996185303,
        0.0
      ]
    },
    {
      "children": [
        34
      ],
      "name": "gorra_cabeza_WendyArmature",
      "rotation": [
        0.6912727355957031,
        0.14880193769931793,
        0.6912727355957031,
        -0.14880193769931793
      ],
      "scale": [
        1.0,
        0.9999978542327881,
        0.9999978542327881
      ],
      "translation": [
        0.0,
        0.4030599892139435,
        0.0
      ]
    },
    {
      "children": [
        35
      ],
      "name": "Cabello_WendyArmature",
      "rotation": [
        0.0,
        0.9654530882835388,
        -0.26057693362236023,
        0.0
      ],
      "scale": [
        1.0,
        1.0000008344650269,
        1.0000008344650269
      ],
      "translation": [
        0.0,
        0.25435999035835266,
        0.0
      ]
    },
    {
      "children": [
        36
      ],
      "name": "Cabello.001_WendyArmature",
      "rotation": [
        0.0,
        0.9994488954544067,
        -0.03319816291332245,
        0.0
      ],
      "scale": [
        1.0,
        1.0000042915344238,
        1.0000042915344238
      ],
      "translation": [
        0.0,
        0.2521800100803375,
        0.0
      ]
    },
    {
      "name": "Cabello.002_WendyArmature",
      "rotation": [
        0.025528233498334885,
        0.0,
        0.0,
        0.9996740818023682
      ],
      "scale": [
        1.0,
        1.0000033378601074,
        1.0000033378601074
      ],
      "translation": [
        0.0,
        0.20600999891757965,
        0.0
      ]
    },
    {
      "name": "fleco_WendyArmature",
      "rotation": [
        -0.6403385996818542,
        -0.2331983894109726,
        0.7251234650611877,
        0.09889957308769226
      ],
      "scale": [
        0.9999973773956299,
        0.9999932646751404,
        1.0000056028366089
      ],
      "translation": [
        -0.14443999528884888,
        0.31136998534202576,
        -0.04024000093340874
      ]
    },
    {
      "name": "fleco.001_WendyArmature",
      "rotation": [
        -0.6225419044494629,
        -0.1624990850687027,
        0.7616258859634399,
        -0.07721289992332458
      ],
      "scale": [
        0.9999985694885254,
        0.9999970197677612,
        0.9999935030937195
      ],
      "translation": [
        -0.06063999980688095,
        0.3059200048446655,
        -0.147599995136261
      ]
    },
    {
      "children": [
        40
      ],
      "name": "fleco.002_WendyArmature",
      "rotation": [
        -0.6735654473304749,
        -0.05796467512845993,
        0.7215543389320374,
        -0.14936217665672302
      ],
      "scale": [
        0.9999974966049194,
        0.9999952912330627,
        0.9999985694885254
      ],
      "translation": [
        -0.08071000128984451,
        0.2741599977016449,
        0.1391800045967102
      ]
    },
    {
      "name": "fleco.003_WendyArmature",
      "rotation": [
        -0.0052694762125611305,
        0.9720919728279114,
        0.04727986454963684,
        -0.22972595691680908
      ],
      "scale": [
        1.0000046491622925,
        0.9999949932098389,
        0.9999991655349731
      ],
      "translation": [
        0.0,
        0.3152399957180023,
        0.0
      ]
    },
    {
      "name": "gorra.R_WendyArmature",
      "rotation": [
        0.02568759396672249,
        0.7707695364952087,
        0.6362428665161133,
        0.021202798932790756
      ],
      "scale": [
        1.0000005960464478,
        0.999997079372406,
        0.999994695186615
      ],
      "translation": [
        -0.013890000060200691,
        0.1948300004005432,
        0.17509999871253967
      ]
    },
    {
      "name": "gorra.L_WendyArmature",
      "rotation": [
        0.02568759396672249,
        0.7707695364952087,
        -0.6362428665161133,
        -0.021202798932790756
      ],
      "scale": [
        1.0000005960464478,
        0.999997079372406,
        0.999994695186615
      ],
      "translation": [
        -0.013890000060200691,
        0.1948300004005432,
        -0.17509999871253967
      ]
    },
    {
      "name": "Wendy"
    },
    {
      "mesh": 0,
      "name": "Wendy_0",
      "skin": 0
    }
  ],
  "samplers": [
    {
      "magFilter": 9729,
      "minFilter": 9987,
      "wrapS": 10497,
      "wrapT": 10497
    }
  ],
  "scene": 0,
  "scenes": [
    {
      "name": "Sketchfab_Scene",
      "nodes": [
        0
      ]
    }
  ],
  "skins": [
    {
      "inverseBindMatrices": 5,
      "joints": [
        3,
        4,
        5,
        6,
        7,
        8,
        9,
        10,
        11,
        12,
        13,
        14,
        15,
        16,
        17,
        18,
        19,
        20,
        21,
        22,
        23,
        24,
        25,
        26,
        27,
        28,
        29,
        30,
        31,
        32,
        33,
        34,
        35,
        36,
        37,
        38,
        39,
        40,
        41,
        42
      ],
      "skeleton": 3
    }
  ],
  "textures": [
    {
      "sampler": 0,
      "source": 0
    }
  ]
}
